<?xml version="1.0" encoding="UTF-8"?>
<svg xmlns="http://www.w3.org/2000/svg" version="1.1" xmlns:xlink="http://www.w3.org/1999/xlink" viewBox="0 0 1920 1080">
  <!-- Generator: Adobe Illustrator 30.1.0, SVG Export Plug-In . SVG Version: 2.1.1 Build 136)  -->
  <defs>
    <style>
      .st0 {
        fill: #c1d0ed;
      }

      .st0, .st1, .st2 {
        stroke: #c1d0ed;
        stroke-miterlimit: 10;
      }

      .st1 {
        fill: #e8edf6;
      }

      .st2 {
        fill: url(#Nueva_muestra_de_motivo_4);
      }

      .st3 {
        fill: none;
      }
    </style>
    <pattern id="Nueva_muestra_de_motivo_4" data-name="Nueva muestra de motivo 4" x="0" y="0" width="685.24" height="349.77" patternUnits="userSpaceOnUse" viewBox="0 0 685.24 349.77">
      <g>
        <rect class="st3" x="0" y="0" width="685.24" height="349.77"/>
        <rect class="st0" x=".5" y=".5" width="684.24" height="348.77"/>
        <path class="st1" d="M230.96,291.76c4.24-20.67-14.84-39.22-36.93-39.02,17.48-72.74-114.93-81.07-101.49-5.47-25.28-16.65-55.79,17.97-47.72,44.47,57.39.18,127.98.18,186.13.03Z"/>
        <path class="st1" d="M639.99,173.91c5.29-25.8-18.53-48.97-46.1-48.72,21.82-90.8-143.48-101.2-126.69-6.83-31.56-20.79-69.65,22.43-59.57,55.51,71.65.22,159.76.23,232.36.03Z"/>
      </g>
    </pattern>
  </defs>
  <g id="F">
    <path class="st2" d="M0,374.63s34.12,25.23,105.17,21.28c64.37-3.58,129.25-41.34,183.13-41.61,55.33-.28,125.79,37.28,203.47,37.41,77.24.13,136.8-48.67,238.12-46.03,101.32,2.63,140.47,48.91,230.11,50.11s112-43.9,221.21-47.75,152.63,46.45,260.52,43.68c107.89-2.77,136.69-46.05,217.11-46.05s101.38,52.49,200.02,49.78c59.47-1.63,61.13-12.06,61.13-12.06V0H0v374.63Z"/>
  </g>
  <g id="Nube">
    <g>
      <rect class="st0" x="-827.67" width="684.24" height="348.77"/>
      <path class="st1" d="M-597.21,291.26c4.24-20.67-14.84-39.22-36.93-39.02,17.48-72.74-114.93-81.07-101.49-5.47-25.28-16.65-55.79,17.97-47.72,44.47,57.39.18,127.98.18,186.13.03Z"/>
      <path class="st1" d="M-188.19,173.41c5.29-25.8-18.53-48.97-46.1-48.72,21.82-90.8-143.48-101.2-126.69-6.83-31.56-20.79-69.65,22.43-59.57,55.51,71.65.22,159.76.23,232.36.03Z"/>
    </g>
  </g>
</svg>